<svg xmlns="http://www.w3.org/2000/svg" xmlns:xlink="http://www.w3.org/1999/xlink" width="7680" zoomAndPan="magnify" viewBox="0 0 5760 863.999991" height="1152" preserveAspectRatio="xMidYMid meet" version="1.0"><defs><g></g></defs><g fill="#002244" fill-opacity="1"><g transform="translate(15.902789, 773.054191)"><g><path d="M 644.6875 -701.746094 L 278.484375 -701.746094 C 241.011719 -701.746094 208.648438 -696.636719 182.25 -687.265625 C 155.847656 -677.046875 132.855469 -660.867188 116.671875 -639.574219 C 99.640625 -617.433594 86.867188 -590.179688 79.203125 -556.117188 C 71.539062 -522.902344 68.128906 -482.023438 68.128906 -435.183594 L 68.128906 -266.5625 C 68.128906 -218.871094 71.539062 -177.992188 79.203125 -143.925781 C 86.867188 -110.710938 99.640625 -82.609375 116.671875 -60.464844 C 133.707031 -39.175781 155.847656 -22.992188 182.25 -13.625 C 208.648438 -4.257812 241.011719 0.851562 278.484375 0.851562 L 569.742188 0.851562 C 601.253906 0.851562 625.949219 -11.921875 642.984375 -36.621094 C 659.164062 -60.464844 667.679688 -100.492188 667.679688 -157.550781 L 667.679688 -385.789062 C 667.679688 -418.152344 648.945312 -423.261719 637.871094 -423.261719 L 336.394531 -423.261719 C 329.582031 -423.261719 312.550781 -419.855469 312.550781 -392.601562 L 312.550781 -327.878906 C 312.550781 -299.773438 329.582031 -297.21875 336.394531 -297.21875 L 548.453125 -297.21875 C 548.453125 -297.21875 549.304688 -177.992188 549.304688 -177.992188 C 549.304688 -151.589844 545.042969 -140.519531 541.636719 -135.410156 C 537.378906 -128.597656 530.566406 -126.042969 521.199219 -126.042969 L 282.742188 -126.042969 C 264.859375 -126.042969 249.527344 -127.746094 238.457031 -132.003906 C 227.386719 -135.410156 219.722656 -141.371094 212.90625 -150.738281 C 206.945312 -159.253906 201.835938 -172.03125 199.28125 -188.210938 C 195.875 -205.242188 194.171875 -226.535156 194.171875 -252.082031 L 194.171875 -449.660156 C 194.171875 -475.210938 195.875 -496.5 199.28125 -513.535156 C 201.835938 -528.863281 206.945312 -541.636719 212.90625 -551.007812 C 219.722656 -559.523438 227.386719 -565.484375 238.457031 -569.742188 C 249.527344 -573.148438 264.859375 -575.703125 282.742188 -575.703125 L 644.6875 -575.703125 C 651.5 -575.703125 668.53125 -578.257812 668.53125 -605.511719 L 668.53125 -671.9375 C 668.53125 -698.339844 651.5 -701.746094 644.6875 -701.746094 Z M 644.6875 -701.746094 "></path></g></g></g><g fill="#002244" fill-opacity="1"><g transform="translate(657.976785, 773.054191)"><g><path d="M 648.945312 -498.203125 C 648.945312 -497.351562 648.945312 -496.5 648.945312 -495.648438 C 648.945312 -494.796875 648.945312 -493.945312 648.945312 -493.09375 Z M 665.125 -36.621094 L 516.089844 -292.109375 C 557.820312 -297.21875 590.179688 -315.105469 611.472656 -344.058594 C 635.316406 -378.976562 648.09375 -429.222656 648.945312 -495.648438 C 648.09375 -562.078125 635.316406 -612.324219 611.472656 -647.242188 C 585.921875 -683.859375 543.339844 -701.746094 485.429688 -701.746094 L 92.828125 -701.746094 C 85.164062 -701.746094 68.128906 -699.191406 68.128906 -671.9375 L 68.128906 -604.660156 C 68.128906 -578.257812 85.164062 -575.703125 92.828125 -575.703125 L 463.289062 -575.703125 C 485.429688 -575.703125 499.910156 -569.742188 508.425781 -556.96875 C 517.792969 -544.191406 522.050781 -523.753906 522.050781 -495.648438 C 522.050781 -467.546875 517.792969 -447.105469 508.425781 -434.332031 C 499.910156 -421.558594 485.429688 -415.597656 463.289062 -415.597656 L 92.828125 -415.597656 C 85.164062 -415.597656 68.128906 -413.042969 68.128906 -386.640625 L 68.128906 -28.957031 C 68.128906 -2.554688 85.164062 0.851562 92.828125 0.851562 L 170.328125 0.851562 C 177.992188 0.851562 194.171875 -2.554688 194.171875 -28.957031 L 194.171875 -289.554688 L 373.867188 -289.554688 L 528.011719 -16.179688 C 531.417969 -11.070312 533.972656 -6.8125 537.378906 -4.257812 C 541.636719 -0.851562 547.601562 0.851562 555.265625 0.851562 L 648.945312 0.851562 C 659.164062 0.851562 666.828125 -5.960938 668.53125 -16.179688 C 669.382812 -24.699219 668.53125 -31.511719 665.125 -36.621094 Z M 665.125 -36.621094 "></path></g></g></g><g fill="#002244" fill-opacity="1"><g transform="translate(1300.902447, 773.054191)"><g><path d="M 524.605469 -622.542969 C 522.902344 -626.800781 521.199219 -631.910156 519.496094 -635.316406 C 505.871094 -679.601562 464.992188 -711.113281 418.152344 -711.113281 C 396.859375 -711.113281 376.421875 -705.152344 359.390625 -693.230469 C 354.277344 -690.675781 350.019531 -687.265625 346.613281 -684.710938 C 333.839844 -673.640625 321.066406 -653.203125 309.144531 -622.542969 L 71.539062 -32.363281 C 68.980469 -24.699219 68.128906 -17.03125 69.832031 -11.921875 C 70.683594 -6.8125 74.945312 0.851562 88.570312 0.851562 L 182.25 0.851562 C 193.320312 0.851562 201.835938 -5.960938 206.09375 -17.03125 L 254.636719 -138.816406 L 441.144531 -138.816406 C 450.511719 -138.816406 459.03125 -143.074219 463.289062 -150.738281 C 468.398438 -157.550781 469.25 -166.921875 466.695312 -175.4375 L 436.035156 -251.230469 C 431.777344 -261.453125 422.410156 -268.265625 411.339844 -268.265625 L 305.734375 -268.265625 L 414.746094 -544.191406 C 415.597656 -545.894531 416.449219 -546.75 416.449219 -546.75 L 419.855469 -546.75 C 419.855469 -546.75 419.855469 -546.75 420.707031 -545.042969 L 631.910156 -17.882812 C 636.167969 -5.960938 644.6875 0.851562 656.609375 0.851562 L 747.734375 0.851562 C 761.359375 0.851562 764.765625 -7.664062 766.46875 -11.921875 C 768.171875 -17.03125 767.320312 -24.699219 763.914062 -32.363281 Z M 524.605469 -622.542969 "></path></g></g></g><g fill="#002244" fill-opacity="1"><g transform="translate(2042.612564, 773.054191)"><g><path d="M 580.8125 -701.746094 L 91.125 -701.746094 C 84.3125 -701.746094 68.128906 -698.339844 68.128906 -671.085938 L 68.128906 -605.511719 C 68.128906 -579.109375 84.3125 -575.703125 91.125 -575.703125 L 580.8125 -575.703125 C 587.625 -575.703125 604.660156 -578.257812 604.660156 -604.660156 L 604.660156 -671.9375 C 604.660156 -699.191406 587.625 -701.746094 580.8125 -701.746094 Z M 576.554688 -416.449219 L 137.113281 -415.597656 C 112.414062 -413.894531 91.125 -400.265625 78.351562 -379.828125 C 74.945312 -373.015625 71.539062 -365.351562 69.832031 -357.6875 L 68.128906 -28.957031 C 68.128906 -2.554688 85.164062 0.851562 91.976562 0.851562 L 170.328125 0.851562 C 177.140625 0.851562 194.171875 -2.554688 194.171875 -28.957031 C 194.171875 -28.957031 195.023438 -290.40625 195.875 -290.40625 L 576.554688 -290.40625 C 583.367188 -290.40625 600.402344 -292.960938 600.402344 -319.363281 L 600.402344 -386.640625 C 600.402344 -413.042969 583.367188 -416.449219 576.554688 -416.449219 Z M 576.554688 -416.449219 "></path></g></g></g><g fill="#002244" fill-opacity="1"><g transform="translate(2620.817603, 773.054191)"><g><path d="M 580.8125 -701.746094 L 91.125 -701.746094 C 84.3125 -701.746094 68.128906 -698.339844 68.128906 -671.085938 L 68.128906 -605.511719 C 68.128906 -579.109375 84.3125 -575.703125 91.125 -575.703125 L 580.8125 -575.703125 C 587.625 -575.703125 604.660156 -578.257812 604.660156 -604.660156 L 604.660156 -671.9375 C 604.660156 -699.191406 587.625 -701.746094 580.8125 -701.746094 Z M 576.554688 -416.449219 L 137.113281 -415.597656 C 112.414062 -413.894531 91.125 -400.265625 78.351562 -379.828125 C 74.945312 -373.015625 71.539062 -365.351562 69.832031 -357.6875 L 68.128906 -28.957031 C 68.128906 -2.554688 85.164062 0.851562 91.976562 0.851562 L 170.328125 0.851562 C 177.140625 0.851562 194.171875 -2.554688 194.171875 -28.957031 C 194.171875 -28.957031 195.023438 -290.40625 195.875 -290.40625 L 576.554688 -290.40625 C 583.367188 -290.40625 600.402344 -292.960938 600.402344 -319.363281 L 600.402344 -386.640625 C 600.402344 -413.042969 583.367188 -416.449219 576.554688 -416.449219 Z M 576.554688 -416.449219 "></path></g></g></g><g fill="#002244" fill-opacity="1"><g transform="translate(3199.022642, 773.054191)"><g><path d="M 170.328125 -701.746094 L 91.976562 -701.746094 C 85.164062 -701.746094 68.128906 -698.339844 68.128906 -671.9375 L 68.128906 -28.957031 C 68.128906 -2.554688 85.164062 0.851562 91.976562 0.851562 L 170.328125 0.851562 C 177.140625 0.851562 194.171875 -2.554688 194.171875 -28.957031 L 194.171875 -671.9375 C 194.171875 -698.339844 177.140625 -701.746094 170.328125 -701.746094 Z M 170.328125 -701.746094 "></path></g></g></g><g fill="#002244" fill-opacity="1"><g transform="translate(3366.761462, 773.054191)"><g><path d="M 656.609375 -701.746094 L 92.828125 -701.746094 C 85.164062 -701.746094 68.128906 -699.191406 68.128906 -672.789062 L 68.128906 -606.363281 C 68.128906 -578.257812 85.164062 -575.703125 92.828125 -575.703125 L 311.699219 -575.703125 L 311.699219 -28.957031 C 311.699219 -2.554688 328.730469 0 335.542969 0 L 413.894531 0 C 421.558594 0 437.738281 -2.554688 437.738281 -28.957031 L 437.738281 -575.703125 L 656.609375 -575.703125 C 664.273438 -575.703125 681.304688 -578.257812 681.304688 -606.363281 L 681.304688 -672.789062 C 681.304688 -699.191406 664.273438 -701.746094 656.609375 -701.746094 Z M 656.609375 -701.746094 "></path></g></g></g><g fill="#002244" fill-opacity="1"><g transform="translate(4021.609484, 773.054191)"><g><path d="M 170.328125 -701.746094 L 91.976562 -701.746094 C 85.164062 -701.746094 68.128906 -698.339844 68.128906 -671.9375 L 68.128906 -28.957031 C 68.128906 -2.554688 85.164062 0.851562 91.976562 0.851562 L 170.328125 0.851562 C 177.140625 0.851562 194.171875 -2.554688 194.171875 -28.957031 L 194.171875 -671.9375 C 194.171875 -698.339844 177.140625 -701.746094 170.328125 -701.746094 Z M 170.328125 -701.746094 "></path></g></g></g><g fill="#69be28" fill-opacity="1"><g transform="translate(4250.354929, 772.042759)"><g><path d="M 584.707031 -697.25 L 276.699219 -697.25 C 239.46875 -697.25 207.3125 -692.171875 181.082031 -682.863281 C 154.003906 -672.710938 132.003906 -656.632812 115.925781 -635.476562 C 99.003906 -614.324219 86.308594 -586.398438 78.695312 -552.550781 C 71.078125 -519.550781 67.695312 -478.933594 67.695312 -432.394531 L 67.695312 -264.851562 C 67.695312 -217.46875 71.078125 -176.851562 78.695312 -143.003906 C 86.308594 -110.003906 99.003906 -82.078125 115.925781 -60.078125 C 132.847656 -38.925781 154.851562 -22.847656 181.082031 -13.539062 C 207.3125 -4.230469 239.46875 0.847656 276.699219 0.847656 L 584.707031 0.847656 C 591.476562 0.847656 608.398438 -2.539062 608.398438 -28.769531 L 608.398438 -95.617188 C 608.398438 -121.847656 591.476562 -125.234375 584.707031 -125.234375 L 280.929688 -125.234375 C 263.160156 -125.234375 247.929688 -126.925781 236.929688 -131.15625 C 225.929688 -134.542969 218.3125 -140.464844 211.542969 -149.773438 C 204.773438 -158.234375 200.542969 -170.925781 197.160156 -187.003906 C 194.621094 -203.929688 192.929688 -225.082031 192.929688 -250.46875 L 192.929688 -447.625 C 192.929688 -473.011719 194.621094 -494.167969 197.160156 -510.242188 C 200.542969 -526.320312 204.773438 -538.167969 211.542969 -547.476562 C 218.3125 -556.785156 225.929688 -562.707031 236.929688 -566.089844 C 247.929688 -570.324219 263.160156 -572.015625 280.929688 -572.015625 L 584.707031 -572.015625 C 591.476562 -572.015625 608.398438 -575.398438 608.398438 -602.476562 L 608.398438 -667.632812 C 608.398438 -693.863281 591.476562 -697.25 584.707031 -697.25 Z M 584.707031 -697.25 "></path></g></g></g><g fill="#69be28" fill-opacity="1"><g transform="translate(4820.506601, 772.042759)"><g><path d="M 643.941406 -635.476562 C 627.015625 -656.632812 605.015625 -672.710938 577.9375 -682.863281 C 551.707031 -692.171875 519.550781 -697.25 482.320312 -697.25 L 275.851562 -697.25 C 238.621094 -697.25 207.3125 -692.171875 181.082031 -682.863281 C 154.003906 -672.710938 132.003906 -656.632812 115.078125 -635.476562 C 99.003906 -614.324219 86.308594 -586.398438 78.695312 -552.550781 C 71.078125 -519.550781 67.695312 -479.78125 67.695312 -432.394531 L 67.695312 -264.851562 C 67.695312 -217.46875 71.078125 -176.851562 78.695312 -143.851562 C 86.308594 -110.003906 99.003906 -82.078125 115.078125 -60.925781 C 132.003906 -38.925781 154.003906 -22.847656 181.082031 -13.539062 C 206.46875 -4.230469 238.621094 0.847656 275.851562 0.847656 L 482.320312 0.847656 C 519.550781 0.847656 551.707031 -4.230469 577.9375 -13.539062 C 605.015625 -22.847656 627.015625 -38.925781 643.941406 -60.078125 C 660.863281 -82.078125 672.710938 -110.003906 680.324219 -143.851562 C 687.09375 -176.851562 691.324219 -217.46875 691.324219 -264.851562 L 691.324219 -432.394531 C 691.324219 -478.933594 687.09375 -519.550781 680.324219 -552.550781 C 672.710938 -586.398438 660.863281 -614.324219 643.941406 -635.476562 Z M 565.246094 -446.78125 L 565.246094 -249.621094 C 565.246094 -225.082031 564.398438 -203.929688 561.015625 -187.003906 C 558.476562 -171.773438 553.398438 -158.234375 546.628906 -149.773438 C 540.707031 -140.464844 532.246094 -134.542969 521.242188 -131.15625 C 510.242188 -126.925781 495.859375 -125.234375 478.089844 -125.234375 L 280.085938 -125.234375 C 262.3125 -125.234375 247.929688 -126.925781 236.929688 -131.15625 C 225.929688 -134.542969 217.46875 -140.464844 211.542969 -149.773438 C 204.773438 -158.234375 200.542969 -171.773438 197.160156 -187.003906 C 194.621094 -203.929688 192.929688 -225.082031 192.929688 -249.621094 L 192.929688 -446.78125 C 192.929688 -471.320312 194.621094 -492.472656 197.160156 -509.398438 C 200.542969 -525.476562 204.773438 -538.167969 211.542969 -547.476562 C 217.46875 -555.9375 225.929688 -561.859375 236.929688 -566.089844 C 247.929688 -569.476562 262.3125 -572.015625 280.085938 -572.015625 L 478.089844 -572.015625 C 495.859375 -572.015625 510.242188 -569.476562 521.242188 -566.089844 C 532.246094 -561.859375 540.707031 -555.9375 546.628906 -547.476562 C 553.398438 -538.167969 558.476562 -525.476562 561.015625 -509.398438 C 564.398438 -492.472656 565.246094 -471.320312 565.246094 -446.78125 Z M 565.246094 -446.78125 "></path></g></g></g><g fill="#69be28" fill-opacity="1"><g transform="translate(5481.432465, 189.993801)"><g><path d="M 87.902344 -93.945312 L 12.425781 -93.945312 C 11.402344 -93.945312 9.121094 -93.601562 9.121094 -90.070312 L 9.121094 -81.175781 C 9.121094 -77.414062 11.402344 -77.070312 12.425781 -77.070312 L 41.726562 -77.070312 L 41.726562 -3.875 C 41.726562 -0.34375 44.007812 0 44.921875 0 L 55.410156 0 C 56.433594 0 58.601562 -0.34375 58.601562 -3.875 L 58.601562 -77.070312 L 87.902344 -77.070312 C 88.929688 -77.070312 91.207031 -77.414062 91.207031 -81.175781 L 91.207031 -90.070312 C 91.207031 -93.601562 88.929688 -93.945312 87.902344 -93.945312 Z M 87.902344 -93.945312 "></path></g></g></g><g fill="#69be28" fill-opacity="1"><g transform="translate(5567.51136, 189.993801)"><g><path d="M 104.320312 -93.945312 L 94.058594 -93.945312 C 92.460938 -93.945312 91.207031 -93.832031 90.070312 -93.488281 C 88.929688 -93.148438 87.902344 -92.578125 86.988281 -91.777344 C 86.191406 -90.867188 85.394531 -89.839844 84.710938 -88.472656 C 84.027344 -87.105469 83.457031 -85.394531 82.773438 -83.226562 L 62.59375 -32.835938 C 62.476562 -32.378906 62.363281 -32.378906 62.25 -32.378906 L 61.109375 -32.378906 C 61.109375 -32.378906 60.882812 -32.378906 60.769531 -32.835938 L 40.703125 -83.226562 C 40.019531 -85.394531 39.332031 -87.105469 38.761719 -88.472656 C 38.078125 -89.839844 37.28125 -90.867188 36.484375 -91.777344 C 35.570312 -92.578125 34.429688 -93.148438 33.292969 -93.488281 C 32.152344 -93.832031 30.78125 -93.945312 29.300781 -93.945312 L 18.8125 -93.945312 C 14.933594 -93.945312 12.3125 -92.691406 10.945312 -90.296875 C 9.691406 -88.128906 9.121094 -84.480469 9.121094 -79.238281 L 9.121094 -3.875 C 9.121094 -0.34375 11.402344 0.113281 12.425781 0.113281 L 22.230469 0.113281 C 23.257812 0.113281 25.425781 -0.34375 25.425781 -3.875 L 25.425781 -72.398438 C 25.425781 -72.511719 25.425781 -72.625 25.425781 -72.625 L 25.996094 -72.625 C 26.109375 -72.625 26.222656 -72.625 26.335938 -72.28125 L 45.832031 -24.054688 C 46.628906 -21.660156 47.429688 -19.609375 48.226562 -17.898438 C 49.136719 -16.191406 50.050781 -14.820312 50.960938 -13.679688 C 52.101562 -12.542969 53.242188 -11.628906 54.609375 -11.171875 C 55.980469 -10.71875 57.460938 -10.488281 59.171875 -10.488281 L 63.847656 -10.488281 C 65.554688 -10.488281 67.152344 -10.71875 68.40625 -11.171875 C 69.773438 -11.628906 71.027344 -12.542969 72.054688 -13.679688 C 72.96875 -14.820312 73.992188 -16.191406 74.792969 -17.898438 C 75.589844 -19.609375 76.386719 -21.660156 77.183594 -24.054688 L 96.796875 -72.398438 C 96.796875 -72.625 96.910156 -72.625 97.023438 -72.625 L 97.59375 -72.625 C 97.59375 -72.625 97.59375 -72.511719 97.59375 -72.398438 L 97.59375 -3.875 C 97.59375 -0.34375 99.875 0.113281 100.785156 0.113281 L 110.589844 0.113281 C 111.617188 0.113281 113.898438 -0.34375 113.898438 -3.875 L 113.898438 -79.238281 C 113.898438 -84.480469 113.328125 -88.128906 112.074219 -90.296875 C 110.703125 -92.691406 108.082031 -93.945312 104.320312 -93.945312 Z M 104.320312 -93.945312 "></path></g></g></g></svg>